<?xml version="1.0" encoding="iso-8859-1"?>
<!-- Generator: Adobe Illustrator 19.0.0, SVG Export Plug-In . SVG Version: 6.00 Build 0)  -->
<svg version="1.1" id="Capa_1" xmlns="http://www.w3.org/2000/svg" xmlns:xlink="http://www.w3.org/1999/xlink" x="0px" y="0px"
	 viewBox="0 0 512 512" style="enable-background:new 0 0 512 512;" xml:space="preserve">
<g>
	<g>
		<path d="M196,151h-75v90h75c24.814,0,45-20.186,45-45C241,171.186,220.814,151,196,151z"/>
	</g>
</g>
<g>
	<g>
		<path d="M467,0H45C20.186,0,0,20.186,0,45v422c0,24.814,20.186,45,45,45h422c24.814,0,45-20.186,45-45V45
			C512,20.186,491.814,0,467,0z M196,271h-75v105c0,8.291-6.709,15-15,15s-15-6.709-15-15c0-3.441,0-231.389,0-240
			c0-8.291,6.709-15,15-15h90c41.353,0,75,33.647,75,75C271,237.353,237.353,271,196,271z M361,271c33.091,0,60,26.909,60,60
			s-26.909,60-60,60s-60-26.909-60-60c0-8.291,6.709-15,15-15c8.291,0,15,6.709,15,15c0,16.538,13.462,30,30,30
			c16.538,0,30-13.462,30-30c0-16.538-13.462-30-30-30c-33.091,0-60-26.909-60-60s26.909-60,60-60s60,26.909,60,60
			c0,8.291-6.709,15-15,15c-8.291,0-15-6.709-15-15c0-16.538-13.462-30-30-30c-16.538,0-30,13.462-30,30
			C331,257.538,344.462,271,361,271z"/>
	</g>
</g>
<g>
</g>
<g>
</g>
<g>
</g>
<g>
</g>
<g>
</g>
<g>
</g>
<g>
</g>
<g>
</g>
<g>
</g>
<g>
</g>
<g>
</g>
<g>
</g>
<g>
</g>
<g>
</g>
<g>
</g>
</svg>
